<mxfile host="app.diagrams.net" modified="2024-07-12T14:38:17.371Z" agent="Mozilla/5.0 (Windows NT 10.0; Win64; x64) AppleWebKit/537.36 (KHTML, like Gecko) Chrome/126.0.0.0 Safari/537.36" version="24.6.5" etag="KG9dCcpWpwGMIS7JLx83" type="github">
  <diagram name="Page-1" id="_Wvr-6jJ51ZDnYDHS1sf">
    <mxGraphModel>
      <root>
        <mxCell id="0" />
        <mxCell id="1" parent="0" />
      </root>
    </mxGraphModel>
  </diagram>
</mxfile>
